<svg xmlns="http://www.w3.org/2000/svg" height="800" width="1200" version="1.1" id="PS4" viewBox="-39.869775 -13.8325 345.53805 82.995"><defs id="defs82"><style id="style80">.cls-1{fill:#000}</style></defs><path transform="translate(-.0114)" id="polygon84" class="cls-1" d="M258.73 43.37h3v.43h-1.25v3.4h-.49v-3.4h-1.26z"/><path transform="translate(-.0114)" id="polygon86" class="cls-1" d="M262.72 47.2h-.5v-3.83h.7l1.09 3.25 1.11-3.25h.69v3.83h-.5v-3.11l-1.05 3.11h-.5l-1.04-3.11z"/><path id="path88" d="M201.9286 13.1h-22.27c-6.47 0-9.63 4-9.63 9.17v15.77c0 3.21-1.53 5.52-4.74 5.52h-21a.24.24 0 00-.24.24v3.17a.24.24 0 00.24.24h23.38c6.47 0 9.64-4 9.64-9.16V22.27c0-3.22 1.52-5.53 4.73-5.53h19.89a.24.24 0 00.24-.24v-3.16a.24.24 0 00-.24-.24" class="cls-1"/><path id="path90" d="M136.0885 13.11h-40.34a.24.24 0 00-.24.24v3.17a.25.25 0 00.25.24h37.91c3.21 0 4.73 2.31 4.73 5.52 0 3.21-1.52 5.53-4.73 5.53h-30c-4.66 0-8.17 3.91-8.17 9.1v10.06a.23.23 0 00.24.24h6.83a.24.24 0 00.24-.24V36.9c0-3.21 1.86-5.46 4.51-5.46h28.75c6.47 0 9.63-4 9.63-9.16s-3.16-9.17-9.63-9.17" class="cls-1"/><path id="path92" d="M254.9286 39.92h-6.83a.25.25 0 01-.25-.24V16.73c0-3.53-2.44-4.68-5.87-2.56l-41.15 25.27c-1.62 1-2.16 2.11-1.77 2.94.39.83 1.22 1.21 3 1.21h38.18a.26.26 0 01.22.18v3.22a.25.25 0 00.24.25h6.86a.25.25 0 00.24-.25v-3.18a.25.25 0 01.24-.25h6.89a.25.25 0 00.25-.24v-3.16a.25.25 0 00-.25-.24m-14.41-.26a.25.25 0 01-.24.25h-32c-.26 0-.39-.07-.43-.16-.04-.09 0-.26.24-.39l31.84-19.61c.22-.14.59-.11.59.32z" class="cls-1"/><path id="path94" d="M26.8086 0v51.62l11.68 3.71v-43.3c0-2 .9-3.38 2.36-2.91 1.91.53 2.28 2.4 2.28 4.42v17.29c7.28 3.52 13 0 13-9.28.01-9.52-3.34-13.74-13.2-17.11A142.25 142.25 0 0026.8086 0z" class="cls-1"/><path id="path96" d="M40.6986 47.79l18.79-6.7c2.13-.76 2.46-1.85.73-2.41a12.74 12.74 0 00-7 .36l-12.52 4.4v-7l.72-.24a43.25 43.25 0 018.71-1.86 37.33 37.33 0 0116.2 1.93c5.51 1.75 6.13 4.31 4.73 6.08-1.4 1.77-4.83 3-4.83 3l-25.53 9.2z" class="cls-1"/><path id="path98" d="M5.3786 47.07c-5.66-1.59-6.6-4.9-4-6.82a28 28 0 016.44-3.09l16.75-6v6.78l-12 4.32c-2.13.76-2.45 1.84-.73 2.41a12.73 12.73 0 007-.36l5.78-2.1v6.13l-1.15.18a37.82 37.82 0 01-18-1.45" class="cls-1"/><path id="path100" d="M65.0686 52.5a2.26 2.26 0 01.67-1.61 2.27 2.27 0 013.87 1.61 2.27 2.27 0 01-2.26 2.27 2.24 2.24 0 01-1.61-.66 2.26 2.26 0 01-.67-1.61zm2.28 2.74a2.75 2.75 0 002.73-2.74 2.74 2.74 0 00-.8-1.93 2.71 2.71 0 00-1.93-.81 2.74 2.74 0 000 5.48" class="cls-1"/><path id="path102" d="M68.0886 51.81a.4.4 0 01-.14.35.74.74 0 01-.4.1h-.84v-.82h.9a.62.62 0 01.32 0 .37.37 0 01.16.37zm.6 2s-.07-.06-.09-.13a1.21 1.21 0 010-.23v-.39a.72.72 0 00-.11-.41.68.68 0 00-.18-.15.69.69 0 00.23-.22.84.84 0 00.12-.47.74.74 0 00-.45-.74 1.26 1.26 0 00-.58-.1h-1.45v3h.53v-1.25h.83a.91.91 0 01.33 0 .35.35 0 01.17.33v.72a.36.36 0 000 .11h.59v-.18" class="cls-1"/></svg>