<?xml version="1.0" encoding="utf-8"?>
<!-- Generator: Adobe Illustrator 21.0.0, SVG Export Plug-In . SVG Version: 6.00 Build 0)  -->
<svg version="1.1" id="LOGO" xmlns="http://www.w3.org/2000/svg" xmlns:xlink="http://www.w3.org/1999/xlink" x="0px" y="0px"
	 viewBox="0 0 856.5 227.2" style="enable-background:new 0 0 856.5 227.2;" xml:space="preserve">
<style type="text/css">
	.st0{fill:#FFFFFF;}
</style>
<circle class="st0" cx="664.6" cy="22.3" r="22.3"/>
<path class="st0" d="M227.5,225.3c-32.4,0-48.5-18.5-48.5-49.4V94.5h-29.3V62.7H179V21.9l38.6-9.6v50.3h40.4v31.8h-40.4v78.1
	c0,12.3,5.6,17.6,17.9,17.6c8,0,14.5-0.3,25-1.5V221C249.7,223.8,238.9,225.3,227.5,225.3z"/>
<path class="st0" d="M365.3,96.9c-27.2,0-41.4,19.4-41.4,45.4v80.9h-38.9V62.7h32.7l3.4,24.1c7.4-18.5,26.5-26.2,45.4-26.2
	c4,0,8,0.3,12,0.9v37C374.3,97.5,369.7,96.9,365.3,96.9z"/>
<path class="st0" d="M504,223.2l-2.8-21c-7.7,15.7-25.6,25-46,25c-34.3,0-55.6-23.2-55.6-57.4V62.7h38.6v98.5
	c0,18.8,7.4,30.6,27.8,30.6c9,0,15.1-3.4,19.8-8c9.3-8.6,11.7-23.2,11.7-36.1V62.7h38.6v160.5H504z"/>
<path class="st0" d="M605.2,225c-26.2,0-43.8-12.7-43.8-43.2V0h38.9v175.3c0,9.3,2.2,15.4,15.4,15.4c3.4,0,4.3-0.3,6.5-0.3v32.4
	C614.4,224.4,612.9,225,605.2,225z"/>
<path class="st0" d="M645,223.2V62.7h39.2v160.5H645z"/>
<path class="st0" d="M837.4,225.6c-16.7,0-25.9-10.5-27.2-22.5c-7.4,13-25.9,24.1-48.8,24.1c-38.3,0-58-24.1-58-50.3
	c0-30.6,23.8-48.2,54.3-50.3l47.2-3.4v-9.9c0-15.1-5.2-25.3-27.2-25.3c-17.9,0-28.4,8-29.3,22.8h-37.3c2.2-36.1,30.9-52.2,66.7-52.2
	c27.5,0,50.9,8.6,60.2,32.7c4,10.2,4.6,21.6,4.6,32.4v59.6c0,7.4,2.5,10.2,9,10.2c2.5,0,4.9-0.6,4.9-0.6v28.4
	C850.1,224.1,846.7,225.6,837.4,225.6z M805,151.9l-40.7,3.1c-11.7,0.9-23.2,8-23.2,21c0,12.3,10.8,20.1,22.8,20.1
	c24.1,0,41.1-13,41.1-36.7V151.9z"/>
<g>
	<path class="st0" d="M60.3,0C24.9,0.2,2,24,2,59.9c0,29.8,19.4,55.2,30.5,93.9c6.3,22.2,9.7,49.3,11.5,69.3h32.6
		c1.8-20,5.2-47.2,11.5-69.3c11.1-38.7,30.5-64.2,30.5-93.9C118.6,24,95.8,0.2,60.3,0z M60.5,91.6c-14.7,0-26.7-11.9-26.7-26.7
		s11.9-26.7,26.7-26.7c14.7,0,26.7,11.9,26.7,26.7S75.2,91.6,60.5,91.6z"/>
</g>
</svg>
