<?xml version="1.0" encoding="utf-8"?>
<svg width="254px" height="254px" viewBox="826.962 -34.905 201.98 201.98" xmlns="http://www.w3.org/2000/svg">
  <path d="m 0,0 c 0,-158.103 -128.168,-286.27 -286.27,-286.27 -158.103,0 -286.27,128.167 -286.27,286.27 0,158.103 128.167,286.27 286.27,286.27 C -128.168,286.27 0,158.103 0,0 Z" style="fill:none;stroke:#231f20;stroke-width:9.921;stroke-linecap:butt;stroke-linejoin:miter;stroke-miterlimit:10;stroke-dasharray:none;stroke-opacity:1" id="path2448" transform="matrix(0.352778, 0, 0, -0.352778, 1028.941695, 66.084674)"/>
  <path d="m 0,0 c -9.392,0.885 -16.216,-3.176 -21.946,-9.544 -7.52,-8.356 -12.235,-18.358 -16.315,-28.667 -6.056,-15.304 -11.351,-30.845 -13.937,-47.188 -1.804,-11.405 -2.467,-22.867 -2.258,-34.404 0.024,-1.37 -0.413,-3.088 -1.28,-4.084 -12.988,-14.901 -27.431,-28.222 -43.628,-39.594 -2.771,-1.945 -4.894,-1.928 -7.697,0.039 -13.667,9.594 -26.075,20.635 -37.528,32.768 -0.677,0.717 -1.308,1.496 -2.066,2.118 -4.631,3.795 -5.5,8.596 -5.376,14.482 0.528,25.086 -5.443,48.959 -14.61,72.149 -4.107,10.389 -8.455,20.635 -15.379,29.541 -4.037,5.192 -8.707,9.681 -15.228,11.493 -2.88,0.801 -5.954,0.903 -9.479,1.398 0,3.577 -0.147,7.597 0.028,11.603 0.536,12.339 2.444,24.443 6.235,36.245 5.282,16.446 13.181,31.645 22.037,46.363 3.788,6.296 7.882,12.469 12.424,18.234 5.912,7.503 13.889,11.388 23.611,11.642 12.765,0.334 25.521,1.097 38.287,1.27 7.717,0.105 15.446,-0.558 23.169,-0.872 7.187,-0.292 14.391,-0.359 21.553,-0.944 4.873,-0.398 9.011,-2.693 13.083,-5.611 7.438,-5.331 11.858,-12.881 16.394,-20.349 9.61,-15.823 18.457,-32.046 24.017,-49.839 C -2.524,37.482 -0.234,26.523 -0.016,15.206 0.08,10.21 0,5.211 0,0 Z" style="fill:none;stroke:#231f20;stroke-width:10.205;stroke-linecap:butt;stroke-linejoin:miter;stroke-miterlimit:10;stroke-dasharray:none;stroke-opacity:1" id="path2452" transform="matrix(0.352778, 0, 0, -0.352778, 964.684774, 50.26303)"/>
  <path d="m 0,0 c 0.151,-27.91 -7.455,-53.546 -21.957,-77.303 -5.191,-8.503 -9.966,-17.268 -14.738,-26.018 -1.926,-3.532 -3.879,-7.212 -4.825,-11.069 -0.872,-3.559 -0.684,-7.459 -0.475,-11.182 0.3,-5.371 1.335,-10.69 -0.282,-16.053 -4.529,-15.024 -22.378,-21.803 -34.649,-12.946 -8.376,6.045 -11.111,14.689 -10.397,24.641 0.558,7.785 2.642,15.246 5.596,22.411 4.282,10.385 4.821,21.106 3.571,32.059 -1.766,15.484 -2.807,30.979 -1.561,46.574 1.523,19.08 6.628,37.252 13.51,55.006 4.036,10.412 8.321,20.693 15.321,29.554 1.443,1.826 3.066,3.545 4.797,5.1 6.645,5.971 13.945,6.902 21.913,2.849 8.608,-4.378 13.446,-11.929 16.963,-20.51 3.891,-9.494 5.589,-19.495 6.464,-29.649 C -0.363,8.988 -0.242,4.489 0,0 Z" style="fill:none;stroke:#231f20;stroke-width:10.205;stroke-linecap:butt;stroke-linejoin:miter;stroke-miterlimit:10;stroke-dasharray:none;stroke-opacity:1" id="path2456" transform="matrix(0.352778, 0, 0, -0.352778, 975.384139, 75.11223)"/>
  <path d="m 0,0 c -1.012,-12.757 -2.045,-25.385 -3.006,-38.019 -0.637,-8.371 0.596,-16.453 3.679,-24.299 2.965,-7.545 5.362,-15.277 5.924,-23.435 0.749,-10.853 -2.439,-20.087 -12.203,-25.781 -13.049,-7.609 -30.724,1.047 -33.241,16.173 -0.594,3.571 -0.742,7.455 0,10.963 2.183,10.325 -1.632,19.033 -6.409,27.631 -7.591,13.661 -15.564,27.131 -22.613,41.067 -7.673,15.173 -11.105,31.609 -12.246,48.558 -1.138,16.919 -0.146,33.608 4.964,49.87 2.366,7.527 5.736,14.613 11.639,20.076 5.918,5.478 12.662,9.084 21.06,6.713 5.31,-1.499 9.154,-5.242 12.493,-9.461 6.719,-8.49 10.979,-18.289 14.874,-28.273 C -9.161,56.601 -4.139,41.147 -2.128,24.91 -1.102,16.627 -0.687,8.268 0,0 Z" style="fill:none;stroke:#231f20;stroke-width:10.205;stroke-linecap:butt;stroke-linejoin:miter;stroke-miterlimit:10;stroke-dasharray:none;stroke-opacity:1" id="path2460" transform="matrix(0.352778, 0, 0, -0.352778, 909.656055, 90.694461)"/>
  <path d="m 0,0 c 0.094,12.615 5.103,25.449 12.335,37.596 7.171,12.044 16.642,22.318 25.443,33.106 4.558,5.586 9.371,10.951 15.765,14.548 3.105,1.747 6.375,2.859 10.051,1.984 5.557,-1.322 10.115,-7.289 9.781,-12.982 C 73.342,73.676 73.077,73.068 72.774,72.561 66.698,62.402 60.386,52.376 54.561,42.076 46.933,28.585 41.113,14.305 37.666,-0.847 36.552,-5.74 35.888,-10.74 35.153,-15.712 c -0.287,-1.947 -1.036,-3.442 -2.459,-4.833 -3.522,-3.441 -7.321,-6.443 -12.12,-7.774 C 14.102,-30.113 8.01,-27.461 4.479,-21.504 0.869,-15.414 0.111,-8.666 0,0 Z" style="fill:none;stroke:#231f20;stroke-width:10.205;stroke-linecap:butt;stroke-linejoin:miter;stroke-miterlimit:10;stroke-dasharray:none;stroke-opacity:1" id="path2464" transform="matrix(0.352778, 0, 0, -0.352778, 878.149418, 36.267912)"/>
  <path d="m 0,0 c 0.107,-6.067 -0.536,-12.026 -3.172,-17.598 -4.373,-9.241 -12.851,-12.1 -21.678,-6.937 -3.283,1.92 -6.113,4.674 -8.938,7.278 -0.774,0.713 -0.987,2.236 -1.112,3.423 -1.382,13.059 -4.885,25.566 -9.885,37.656 -7.367,17.812 -16.799,34.507 -27.665,50.409 -0.38,0.555 -0.816,1.283 -0.765,1.891 0.924,10.987 9.746,16.071 17.92,11.761 4.29,-2.262 8.598,-5.201 11.718,-8.845 9.87,-11.526 19.579,-23.237 28.594,-35.436 C -7.059,32.878 -1.997,20.66 -0.244,7.266 -0.163,6.642 -0.022,6.019 -0.011,5.394 0.021,3.596 0,1.798 0,0 Z" style="fill:none;stroke:#231f20;stroke-width:10.205;stroke-linecap:butt;stroke-linejoin:miter;stroke-miterlimit:10;stroke-dasharray:none;stroke-opacity:1" id="path2468" transform="matrix(0.352778, 0, 0, -0.352778, 978.351079, 36.909863)"/>
  <path d="m 0,0 c 9.314,-8.69 18.432,-17.474 27.874,-25.895 4.814,-4.292 10.228,-7.908 15.317,-11.897 0.694,-0.544 1.542,-1.483 1.536,-2.233 -0.043,-5.557 0.209,-11.183 -0.583,-16.649 -1.084,-7.495 -6.054,-11.523 -13.811,-12.53 -7.612,-0.988 -13.922,2.062 -20.273,5.749 -4.172,2.422 -4.64,6.447 -6.149,10.173 -4.332,10.698 -7.256,21.611 -5.916,33.322 C -1.231,-13.196 -0.638,-6.411 0,0 Z" style="fill:none;stroke:#231f20;stroke-width:10.205;stroke-linecap:butt;stroke-linejoin:miter;stroke-miterlimit:10;stroke-dasharray:none;stroke-opacity:1" id="path2472" transform="matrix(0.352778, 0, 0, -0.352778, 910.910609, 95.977454)"/>
  <path d="m 0,0 c 0.722,-13.626 4.325,-27.233 0.394,-40.896 -1.833,-6.371 -4.128,-12.61 -6.244,-18.899 -0.165,-0.489 -0.481,-1.015 -0.881,-1.325 -6.038,-4.678 -12.408,-8.92 -20.406,-8.601 -12.159,0.486 -16.476,5.557 -17.715,15.818 -0.022,0.178 -0.036,0.359 -0.036,0.538 -0.001,4.223 -0.609,8.562 0.169,12.637 0.842,4.406 5.779,5.405 8.89,7.883 12.261,9.767 23.833,20.247 34.32,31.906 0.349,0.387 0.479,0.97 0.71,1.462 C -0.532,0.349 -0.266,0.174 0,0 Z" style="fill:none;stroke:#231f20;stroke-width:10.205;stroke-linecap:butt;stroke-linejoin:miter;stroke-miterlimit:10;stroke-dasharray:none;stroke-opacity:1" id="path2476" transform="matrix(0.352778, 0, 0, -0.352778, 945.676426, 95.844527)"/>
  <path d="m 0,0 c 0,-130.794 -106.03,-236.824 -236.824,-236.824 -130.794,0 -236.823,106.03 -236.823,236.824 0,130.794 106.029,236.824 236.823,236.824 C -106.03,236.824 0,130.794 0,0 Z" style="fill:none;stroke:#231f20;stroke-width:12.898;stroke-linecap:butt;stroke-linejoin:miter;stroke-miterlimit:10;stroke-dasharray:none;stroke-opacity:1" id="path2480" transform="matrix(0.352778, 0, 0, -0.352778, 1011.49798, 66.084674)"/>
</svg>