<svg width="254px" height="254px" viewBox="356.305 400.915 191.783 252.598" xmlns="http://www.w3.org/2000/svg">
  <defs>
    <clipPath id="a" clipPathUnits="userSpaceOnUse">
      <path d="M0 792h612V0H0z"/>
    </clipPath>
  </defs>
  <g clip-path="url(#a)" transform="matrix(.35278 0 0 -.35278 332.73 671.188)">
    <path d="M466.824 407.019c53.174-53.973 27.62-165.37-57.075-248.812-84.695-83.442-196.462-107.331-249.635-53.357-53.174 53.973-27.621 165.37 57.075 248.81 84.695 83.443 196.46 107.332 249.635 53.359z" fill="none" stroke="#231f20" stroke-width="8" stroke-miterlimit="10"/>
    <path d="M231.235 100.74c-4.375 1.968-6.551 6.893-5.013 11.346 1.444 4.18 5.997 6.596 10.695 5.595 2.548-.542 5.037-1.504 7.605-1.78 11.176-1.2 20.094 2.95 27.07 11.677 4.148 5.19 9.689 5.892 13.932 1.994 2.974-2.732 3.906-7.618 1.62-10.944-10.847-15.782-35.177-25.07-55.91-17.889" fill="#231f20"/>
    <path d="M412.439 502.809c1.83-5.672-8.818-16.484-3.312-27.048 3.495-6.704 10.17-6.927 11.15-12.696 1.234-7.25-9.825-10.824-12.143-19.872-4.36-17.02 9.673-33.098 14.449-40.791 21.66-34.89-20.895-104.514-48.112-144.76-49.77-73.595-194.84-109.748-249.635-53.358-52.668 54.2-14.181 183.198 57.075 248.812 87.146 80.246 224.903 67.146 230.528 49.713" fill="#fff"/>
    <path d="M412.439 502.809c1.83-5.672-8.818-16.484-3.312-27.048 3.495-6.704 10.17-6.927 11.15-12.696 1.234-7.25-9.825-10.824-12.143-19.872-4.36-17.02 9.673-33.098 14.449-40.791 21.66-34.89-20.895-104.514-48.112-144.76-49.77-73.595-194.84-109.748-249.635-53.358-52.668 54.2-14.181 183.198 57.075 248.812 87.146 80.246 224.903 67.146 230.528 49.713z" fill="none" stroke="#231f20" stroke-width="8" stroke-miterlimit="10"/>
    <path d="M373.786 599.896c-12.063 14.62-11.463 34.607.776 48.932 19.218 22.496 75.279 49.356 94.849 37.643 19.569-11.713-4.522-63.393-20.134-81.812-2.09-2.465-4.273-3.028-7.542-3.585-5.295-.902-8.646.856-12.86 3.272-2.572 1.475-7.134.96-10.165-.252-3.07-1.23-5.35-4.426-7.988-6.747-.96-.846-2.065-2.465-2.917-2.35-8.103 1.092-12.635-3.508-17.08-11.46-6.15 5.865-12.178 10.589-16.94 16.359" fill="#fff"/>
    <path d="M373.786 599.896c-12.063 14.62-11.463 34.607.776 48.932 19.218 22.496 75.279 49.356 94.849 37.643 19.569-11.713-4.522-63.393-20.134-81.812-2.09-2.465-4.273-3.028-7.542-3.585-5.295-.902-8.646.856-12.86 3.272-2.572 1.475-7.134.96-10.165-.252-3.07-1.23-5.35-4.426-7.988-6.747-.96-.846-2.065-2.465-2.917-2.35-8.103 1.092-12.635-3.508-17.08-11.46-6.15 5.865-12.178 10.589-16.94 16.359z" fill="none" stroke="#231f20" stroke-width="15.307" stroke-miterlimit="10"/>
    <path d="M605.31 792c-7.077-2.716-13.59-4.577-19.512-7.598-24.773-12.634-52.417-12.299-78.757-17.746-23.36-4.829-47.008-8.256-70.36-13.115-6.581-1.37-12.897-5.058-18.766-8.62-22.98-13.945-45.775-28.194-68.507-42.539-2.81-1.773-5.453-4.442-7.104-7.311a2688.08 2688.08 0 01-29.2-52.069c-4.771-8.735-2.533-18.182 4.639-21.934 6.846-3.581 15.258-.42 20.162 8.139 8.285 14.457 16.045 29.219 24.523 43.558 1.996 3.377 5.534 6.573 9.113 8.164 22.758 10.113 45.722 19.762 68.626 29.543 10.266 4.384 20.842 7.681 32.082 5.053 16.395-3.833 26.988-18.839 28.038-37.99 1.019-18.568-2.651-35.677-13.05-51.396-6.667-10.08-12.446-20.753-18.544-31.206-4.54-7.782-3.43-13.689 3.233-18.103 7.624-5.051 13.138-4.18 18.675 3.163 8.914 11.824 16.938 24.44 26.844 35.355 7.97 8.784 18.538 15.149 27.299 23.291 15.565 14.465 31.003 29.105 45.813 44.334 16.207 16.666 28.567 37.505 53.443 45.437L605.31 792" fill="#fff"/>
    <path d="M605.31 792c-7.077-2.716-13.59-4.577-19.512-7.598-24.773-12.634-52.417-12.299-78.757-17.746-23.36-4.829-47.008-8.256-70.36-13.115-6.581-1.37-12.897-5.058-18.766-8.62-22.98-13.945-45.775-28.194-68.507-42.539-2.81-1.773-5.453-4.442-7.104-7.311a2688.08 2688.08 0 01-29.2-52.069c-4.771-8.735-2.533-18.182 4.639-21.934 6.846-3.581 15.258-.42 20.162 8.139 8.285 14.457 16.045 29.219 24.523 43.558 1.996 3.377 5.534 6.573 9.113 8.164 22.758 10.113 45.722 19.762 68.626 29.543 10.266 4.384 20.842 7.681 32.082 5.053 16.395-3.833 26.988-18.839 28.038-37.99 1.019-18.568-2.651-35.677-13.05-51.396-6.667-10.08-12.446-20.753-18.544-31.206-4.54-7.782-3.43-13.689 3.233-18.103 7.624-5.051 13.138-4.18 18.675 3.163 8.914 11.824 16.938 24.44 26.844 35.355 7.97 8.784 18.538 15.149 27.299 23.291 15.565 14.465 31.003 29.105 45.813 44.334 16.207 16.666 28.567 37.505 53.443 45.437L605.31 792z" fill="none" stroke="#231f20" stroke-width="15.307" stroke-miterlimit="10"/>
  </g>
</svg>
